<svg id="visual" viewBox="0 0 900 600" width="900" height="600" xmlns="http://www.w3.org/2000/svg" xmlns:xlink="http://www.w3.org/1999/xlink" version="1.1"><rect x="0" y="0" width="900" height="600" fill="#002233"></rect><path d="M0 310L21.5 336.5C43 363 86 416 128.8 441.8C171.7 467.7 214.3 466.3 257.2 458.5C300 450.7 343 436.3 385.8 419C428.7 401.7 471.3 381.3 514.2 366C557 350.7 600 340.3 642.8 338.5C685.7 336.7 728.3 343.3 771.2 352.8C814 362.3 857 374.7 878.5 380.8L900 387L900 601L878.5 601C857 601 814 601 771.2 601C728.3 601 685.7 601 642.8 601C600 601 557 601 514.2 601C471.3 601 428.7 601 385.8 601C343 601 300 601 257.2 601C214.3 601 171.7 601 128.8 601C86 601 43 601 21.5 601L0 601Z" fill="#0066FF" stroke-linecap="round" stroke-linejoin="miter"></path></svg>