<svg id="visual" viewBox="0 0 900 600" width="900" height="600" xmlns="http://www.w3.org/2000/svg" xmlns:xlink="http://www.w3.org/1999/xlink" version="1.1"><rect x="0" y="0" width="900" height="600" fill="#001220"></rect><defs><linearGradient id="grad1_0" x1="33.3%" y1="0%" x2="100%" y2="100%"><stop offset="20%" stop-color="#001220" stop-opacity="1"></stop><stop offset="80%" stop-color="#001220" stop-opacity="1"></stop></linearGradient></defs><defs><linearGradient id="grad2_0" x1="0%" y1="0%" x2="66.7%" y2="100%"><stop offset="20%" stop-color="#001220" stop-opacity="1"></stop><stop offset="80%" stop-color="#001220" stop-opacity="1"></stop></linearGradient></defs><g transform="translate(900, 0)"><path d="M0 486.7C-67.8 484.9 -135.5 483 -186.3 449.7C-237 416.4 -270.8 351.8 -299.1 299.1C-327.4 246.4 -350.3 205.5 -380.6 157.7C-411 109.8 -448.9 54.9 -486.7 0L0 0Z" fill="#FBAE3C"></path></g><g transform="translate(0, 600)"><path d="M0 -486.7C44.7 -435.6 89.5 -384.4 152.7 -368.6C215.9 -352.9 297.5 -372.5 344.2 -344.2C390.8 -315.8 402.4 -239.5 420.4 -174.1C438.3 -108.8 462.5 -54.4 486.7 0L0 0Z" fill="#FBAE3C"></path></g></svg>