<svg id="visual" viewBox="0 0 900 600" width="900" height="600" xmlns="http://www.w3.org/2000/svg" xmlns:xlink="http://www.w3.org/1999/xlink" version="1.1"><rect x="0" y="0" width="900" height="600" fill="#FFFFFF"></rect><path d="M0 325L21.5 342.7C43 360.3 86 395.7 128.8 413.5C171.7 431.3 214.3 431.7 257.2 403.8C300 376 343 320 385.8 288C428.7 256 471.3 248 514.2 248.7C557 249.3 600 258.7 642.8 270.3C685.7 282 728.3 296 771.2 311.5C814 327 857 344 878.5 352.5L900 361L900 601L878.5 601C857 601 814 601 771.2 601C728.3 601 685.7 601 642.8 601C600 601 557 601 514.2 601C471.3 601 428.7 601 385.8 601C343 601 300 601 257.2 601C214.3 601 171.7 601 128.8 601C86 601 43 601 21.5 601L0 601Z" fill="#6600FF" stroke-linecap="round" stroke-linejoin="miter"></path></svg>